<?xml version="1.0" encoding="utf-8"?>
<!-- Generator: Adobe Illustrator 15.0.0, SVG Export Plug-In . SVG Version: 6.00 Build 0)  -->
<!DOCTYPE svg PUBLIC "-//W3C//DTD SVG 1.1//EN" "http://www.w3.org/Graphics/SVG/1.1/DTD/svg11.dtd">
<svg version="1.1" id="Layer_1" xmlns="http://www.w3.org/2000/svg" xmlns:xlink="http://www.w3.org/1999/xlink" x="0px" y="0px"
	 width="383px" height="375px" viewBox="232.445 118.137 383 375" enable-background="new 232.445 118.137 383 375"
	 xml:space="preserve">
<g>
	<path fill="#202020" d="M461.219,279.272c-14.513,0-24.477,5.942-24.477,26.737c0,20.98,11.542,27.246,25.573,27.246
		c6.267,0,13.912-1.067,18.983-2.78l-3.167-13.401c-3.697,0.722-9.931,1.274-13.438,1.274c-5.959,0-9.164-0.909-9.349-6.262h29.543
		C486.781,284.323,479.034,279.272,461.219,279.272 M454.283,302.21c0.322-5.749,2.937-10.123,7.899-10.123
		c4.888,0,8.388,2.396,8.479,9.383L454.283,302.21z M407.107,279.259c-10.142,0-20.8,2.467-27.638,4.77v47.826h18.195v-35.801
		c2.083-0.409,3.861-0.697,5.444-0.697c6.175,0,7.186,2.399,7.186,9.562v26.938h18.188V303.71
		C428.483,285.501,421.019,279.259,407.107,279.259 M519.83,294.561c4.082,0,8.574,1.21,11.262,1.97l3.566-15.094
		c-4.07-1.407-10.934-2.179-16.596-2.179c-15.034,0-25.769,5.941-25.769,26.73c0,20.979,10.642,27.251,25.769,27.251
		c5.379,0,12.427-0.886,16.596-2.486l-3.566-15.107c-2.688,0.985-6.863,2.173-11.262,2.173c-6.045,0-9.327-1.078-9.327-11.51
		C510.503,295.262,513.785,294.561,519.83,294.561 M371.331,280.547l-3.93-16.704h-43.524v43.875
		c0.087,17.692,7.338,23.959,20.797,24.138h25.654v-16.716h-20.395c-4.581-0.354-7.053-2.927-7.053-9.446h21.896v-16.392h-21.913
		v-8.755H371.331L371.331,280.547z M564.864,279.259c-16.512,0-25.349,5.846-25.349,26.73c0,20.979,8.627,27.251,25.349,27.251
		c16.891,0,25.563-6.271,25.563-27.251C590.428,285.104,581.66,279.259,564.864,279.259 M564.864,319.315
		c-5.678,0-7.164-1.388-7.164-13.007c0-12.056,1.486-13.139,7.164-13.139c5.757,0,7.249,1.083,7.249,13.139
		C572.113,317.928,570.621,319.315,564.864,319.315"/>
	<g>
		<g>
			<path id="SVGID_1_" fill="#202020" d="M295.562,297.162c0,9.929,8.051,17.978,17.975,17.978l0,0
				c9.932,0,17.979-8.049,17.979-17.978l0,0c0-9.933-8.048-17.978-17.979-17.978l0,0
				C303.613,279.185,295.562,287.229,295.562,297.162"/>
		</g>
	</g>
	<g>
		<g>
			<path id="SVGID_3_" fill="#202020" d="M252.171,315.139c0,14.894,12.075,26.961,26.966,26.961l0,0
				c14.893,0,26.964-12.067,26.964-26.961l0,0c0-14.893-12.071-26.969-26.964-26.969l0,0
				C264.247,288.17,252.171,300.247,252.171,315.139"/>
		</g>
	</g>
	<g>
		<g>
			<path id="SVGID_5_" fill="#202020" d="M308.897,357.089c0,8.271,6.708,14.979,14.983,14.979l0,0
				c8.27,0,14.979-6.707,14.979-14.979l0,0c0-8.279-6.711-14.988-14.979-14.988l0,0C315.605,342.1,308.897,348.809,308.897,357.089"
				/>
		</g>
	</g>
	<g>
		<g>
			<path id="SVGID_7_" fill="#202020" d="M293.432,233.875c0,4.966,4.02,8.99,8.985,8.99l0,0c4.965,0,8.986-4.024,8.986-8.99l0,0
				c0-4.967-4.021-8.986-8.986-8.986l0,0C297.452,224.888,293.432,228.908,293.432,233.875"/>
		</g>
	</g>
	<g>
		<g>
			<path id="SVGID_9_" fill="#202020" d="M267.155,263.843c0,6.615,5.36,11.978,11.981,11.978l0,0
				c6.625,0,11.983-5.362,11.983-11.978l0,0c0-6.625-5.359-11.988-11.983-11.988l0,0
				C272.515,251.854,267.155,257.218,267.155,263.843"/>
		</g>
	</g>
</g>
</svg>
