<?xml version="1.0" encoding="utf-8"?>
<!-- Generator: Adobe Illustrator 17.0.0, SVG Export Plug-In . SVG Version: 6.00 Build 0)  -->
<!DOCTYPE svg PUBLIC "-//W3C//DTD SVG 1.1//EN" "http://www.w3.org/Graphics/SVG/1.1/DTD/svg11.dtd">
<svg version="1.1" id="Layer_1" xmlns="http://www.w3.org/2000/svg" xmlns:xlink="http://www.w3.org/1999/xlink" x="0px" y="0px"
	 width="315.071px" height="315.07px" viewBox="0 0 315.071 315.07" enable-background="new 0 0 315.071 315.07"
	 xml:space="preserve">
<path fill-rule="evenodd" clip-rule="evenodd" d="M143.039,95.446c0.002,7.063-6.877,19.962-9.799,25.663
	c-4.244,8.277-7.834,16.478-6.626,27.559c1.557,18.475,15.158,33.004,31.283,36.445c-1.249-5.105-4.239-7.546-3.822-18.638
	c0.267-7.096,2.313-13.208,9.44-12.946c6.682,0.245,8.35,6.966,8.521,13.52c0.253,9.722-1.741,11.625-3.997,18.178
	c15.945-2.399,30.836-15.968,35.331-32.452c3.091-16.053-1.77-36.242-9.218-50.034l-7.467-12.435
	c-3.299-3.143-5.923-8.076-9.962-10.623c-0.235,3.809-0.78,7.037-1.991,10.371c-1.231,3.391-2.878,4.982-4.076,7.621
	c-1.408-1.345-1.045-0.509-1.512-3.61c-0.166-1.105-0.416-2.187-0.702-3.423c-3.189-13.795-12.639-28.991-26.303-33.105
	C142.596,63.103,147.173,89.266,143.039,95.446"/>
<path fill-rule="evenodd" clip-rule="evenodd" d="M126.943,222.9c-2.067,5.178-2.451,10.794-1.349,17.025
	c1.225,6.924,4.979,10.612,12.336,11.308c18.211,1.723,21.224-9.906,18.882-23.949c-0.541-3.247-0.836-3.577-2.457-6.36
	c-1.512-2.597-3.746-4.616-10.916-5.097c-7.704-0.517-11.949,1.491-13.668,3.108C128.168,220.444,127.747,220.887,126.943,222.9
	 M148.554,229.013c0.587,5.172,0.762,13.427-3.23,15.071c-3.358,1.383-10.59,2.218-11.421-5.905
	c-0.327-3.201-0.59-9.784,0.885-12.779C137.152,220.438,147.565,220.3,148.554,229.013z"/>
<path fill-rule="evenodd" clip-rule="evenodd" d="M204.068,248.1l0.022,1.454h-0.028v1.823h8.261v-1.017l-8.221-0.086l8.224,0.086
	l-0.01-26.467c2.439-0.249,9.806-1.179,11.658,0.777c2.268,2.396,1.499,21.51,1.53,25.628l0.085,0.004v1.075h8.161l0.037-1.823
	h-0.077c0.287-9.047,1.356-24.339-2.936-30.042c-4.551-6.046-19.04-3.628-26.712-0.825L204.068,248.1z"/>
<path fill-rule="evenodd" clip-rule="evenodd" d="M101.799,212.198l0.377,37.356h-0.064v1.823h8.855v-1.013l0.014,0l-0.062-34.108
	l0.095-4c0.094-0.068,0.217-0.13,0.365-0.186h14.985v-0.371h0.012l-0.012-0.525v-2.242h-0.052l-0.099-4.275l-39.332,0.084
	l-0.003,4.191v0.081l-0.002,2.563l0.002,0v0.495h14.616C101.611,212.109,101.713,212.152,101.799,212.198"/>
<path fill-rule="evenodd" clip-rule="evenodd" d="M165.887,222.9c-2.068,5.178-2.451,10.794-1.349,17.025
	c1.225,6.924,4.979,10.612,12.336,11.308c18.211,1.723,21.223-9.906,18.882-23.949c-0.541-3.247-0.836-3.577-2.456-6.36
	c-1.512-2.597-3.746-4.616-10.916-5.097c-7.704-0.517-11.949,1.491-13.668,3.108C167.111,220.444,166.691,220.887,165.887,222.9
	 M187.497,229.013c0.587,5.172,0.762,13.427-3.23,15.071c-3.358,1.383-10.59,2.218-11.42-5.905
	c-0.327-3.201-0.59-9.784,0.885-12.779C176.095,220.438,186.508,220.3,187.497,229.013z"/>
<path fill="none" stroke="#2B2A29" stroke-width="2.8346" stroke-miterlimit="22.9256" d="M35.295,1.417h244.481
	c18.633,0,33.878,15.245,33.878,33.878v244.48c0,18.633-15.245,33.878-33.878,33.878H35.295c-18.633,0-33.877-15.245-33.877-33.878
	V35.295C1.417,16.662,16.662,1.417,35.295,1.417z"/>
<path fill="none" stroke="#2B2A29" stroke-width="1.4173" stroke-miterlimit="22.9256" d="M50.785,36.167h215.436
	c6.111,0,11.11,4.999,11.11,11.11v215.436c0,6.111-4.999,11.11-11.11,11.11H50.785c-6.111,0-11.11-5-11.11-11.11V47.277
	C39.674,41.166,44.674,36.167,50.785,36.167z"/>
<path fill="none" stroke="#2B2A29" stroke-width="1.4173" stroke-miterlimit="22.9256" d="M49.853,41.206h215.939
	c3.201,0,5.82,2.619,5.82,5.82v215.938c0,3.202-2.619,5.82-5.82,5.82H49.853c-3.201,0-5.82-2.619-5.82-5.82V47.026
	C44.032,43.825,46.651,41.206,49.853,41.206z"/>
</svg>
